<svg width="40" height="40" viewBox="0 0 40 40" fill="none" xmlns="http://www.w3.org/2000/svg">
<path d="M40 20C40 31.0457 31.0457 40 20 40C8.9543 40 0 31.0457 0 20C0 8.9543 8.9543 0 20 0C31.0457 0 40 8.9543 40 20Z" fill="#40D8D0"/>
<path d="M20.2 32.032C17.9227 32.032 15.944 31.528 14.264 30.52C12.584 29.5307 11.2867 28.1307 10.372 26.32C9.45733 24.5093 9 22.372 9 19.908C9 18.9747 9.112 17.9387 9.336 16.8C9.57867 15.6427 9.96133 14.4947 10.484 13.356C11.0067 12.1987 11.7067 11.144 12.584 10.192C13.4613 9.24 14.5347 8.47467 15.804 7.896C17.0733 7.29867 18.5667 7 20.284 7C21.7587 7 23.0467 7.18667 24.148 7.56C25.2493 7.91467 26.2013 8.372 27.004 8.932C27.8067 9.47333 28.4693 10.0427 28.992 10.64C29.5333 11.2373 29.9627 11.788 30.28 12.292C30.5973 12.7773 30.8307 13.132 30.98 13.356L26.92 16.464C26.5093 15.6987 26.024 14.952 25.464 14.224C24.904 13.4773 24.2133 12.8613 23.392 12.376C22.5707 11.8907 21.5533 11.648 20.34 11.648C19.0893 11.648 18.0533 11.928 17.232 12.488C16.4107 13.048 15.7573 13.7573 15.272 14.616C14.8053 15.4747 14.4787 16.3893 14.292 17.36C14.1053 18.312 14.012 19.1987 14.012 20.02C14.012 20.8973 14.1053 21.7653 14.292 22.624C14.4787 23.4827 14.796 24.2667 15.244 24.976C15.7107 25.6853 16.3267 26.2547 17.092 26.684C17.876 27.0947 18.856 27.3 20.032 27.3C21.3387 27.3 22.4027 27.0667 23.224 26.6C24.064 26.1333 24.764 25.48 25.324 24.64C25.884 23.7813 26.4067 22.7827 26.892 21.644L31.484 23.716C30.6627 25.4147 29.7387 26.8893 28.712 28.14C27.6853 29.3907 26.4813 30.352 25.1 31.024C23.7187 31.696 22.0853 32.032 20.2 32.032Z" fill="white"/>
</svg>
