<svg width="48" height="48" viewBox="0 0 48 48" fill="none" xmlns="http://www.w3.org/2000/svg">
	<path fill-rule="evenodd" clip-rule="evenodd" d="M0.141967 20.2694C-0.413344 17.5631 0.689713 14.7819 2.93821 13.2139L20.1488 1.21216C22.4665 -0.404056 25.5335 -0.404054 27.8512 1.21216L45.0618 13.2139C47.3103 14.7819 48.4133 17.5631 47.858 20.2694L43.2909 42.5274C42.6369 45.7146 39.8629 48 36.6475 48H11.3525C8.13711 48 5.36309 45.7146 4.70911 42.5274L0.141967 20.2694ZM2.13014 20.5803C1.6211 18.0995 2.63224 15.5501 4.69336 14.1128L20.4697 3.11115C22.5943 1.62962 25.4058 1.62962 27.5303 3.11115L43.3066 14.1128C45.3678 15.5501 46.3789 18.0995 45.8699 20.5803L41.6833 40.9835C41.0838 43.905 38.541 46 35.5935 46H12.4065C9.45902 46 6.91616 43.905 6.31669 40.9835L2.13014 20.5803Z" fill=""/>
	<path fill-rule="evenodd" clip-rule="evenodd" d="M6.44851 15.0116C4.57476 16.3183 3.65555 18.6359 4.11831 20.8912L7.92426 39.4395C8.46924 42.0955 10.7809 44 13.4604 44H34.5396C37.2191 44 39.5308 42.0955 40.0757 39.4395L43.8817 20.8912C44.3445 18.6359 43.4252 16.3183 41.5515 15.0116L27.2093 5.01014C25.278 3.66329 22.722 3.66329 20.7907 5.01014L6.44851 15.0116ZM31.4675 38.7362C33.2723 37.5096 34.6164 35.9571 35.4999 34.0789L32.717 32.6989C31.9597 34.1811 30.9311 35.363 29.6311 36.2446C28.3311 37.1262 26.6841 37.5671 24.69 37.5671C21.7871 37.5671 19.4459 36.5704 17.6663 34.5772C15.8994 32.5712 15.0159 29.9391 15.0159 26.6809C15.0159 23.231 15.9246 20.4456 17.7421 18.3246C19.5721 16.2035 21.9007 15.143 24.7278 15.143C26.5074 15.143 28.0409 15.5519 29.3282 16.3696C30.6155 17.1746 31.6505 18.3501 32.433 19.8962L35.1591 18.7079C34.2883 16.638 32.9441 15.028 31.1267 13.8781C29.3219 12.7281 27.1889 12.1532 24.7278 12.1532C20.9036 12.1532 17.7736 13.5076 15.3378 16.2163C12.9019 18.9251 11.684 22.4772 11.684 26.8725C11.684 30.9485 12.8766 34.2514 15.262 36.7813C17.6474 39.2984 20.7648 40.5569 24.6142 40.5569C27.3909 40.5569 29.6753 39.95 31.4675 38.7362Z" fill=""/>
</svg>
