<svg width="40" height="40" viewBox="0 0 40 40" fill="none" xmlns="http://www.w3.org/2000/svg">
<path fill-rule="evenodd" clip-rule="evenodd" d="M20 40C31.0457 40 40 31.0457 40 20C40 8.95431 31.0457 0 20 0C8.95431 0 0 8.95431 0 20C0 31.0457 8.95431 40 20 40ZM14.5772 30.5143C16.1526 31.4547 18.0081 31.9249 20.1436 31.9249C21.9115 31.9249 23.4431 31.6114 24.7385 30.9845C26.0338 30.3576 27.1628 29.4607 28.1255 28.2939C29.0883 27.1271 29.9547 25.7513 30.7249 24.1665L26.4189 22.2335C25.9638 23.2958 25.4736 24.2275 24.9485 25.0286C24.4234 25.8122 23.767 26.4218 22.9793 26.8571C22.2091 27.2925 21.2114 27.5102 19.9861 27.5102C18.8833 27.5102 17.9643 27.3186 17.2291 26.9355C16.5115 26.535 15.9338 26.0038 15.4962 25.342C15.0761 24.6803 14.7785 23.9488 14.6035 23.1478C14.4284 22.3467 14.3409 21.5369 14.3409 20.7184C14.3409 19.9521 14.4284 19.1249 14.6035 18.2367C14.7785 17.3312 15.0849 16.4778 15.5225 15.6767C15.9776 14.8756 16.5902 14.2139 17.3604 13.6914C18.1306 13.169 19.1021 12.9078 20.2749 12.9078C21.4127 12.9078 22.3666 13.1341 23.1368 13.5869C23.907 14.0397 24.5547 14.6144 25.0798 15.311C25.6049 15.9902 26.06 16.6868 26.4451 17.4008L30.2523 14.5012C30.1123 14.2922 29.8935 13.9614 29.5959 13.5086C29.2983 13.0384 28.8957 12.5246 28.3881 11.9673C27.898 11.4101 27.2766 10.8789 26.5239 10.3739C25.7712 9.85143 24.8785 9.42476 23.8457 9.09388C22.813 8.74558 21.6052 8.57143 20.2224 8.57143C18.612 8.57143 17.2116 8.85007 16.0213 9.40735C14.831 9.94721 13.8245 10.6612 13.0018 11.5494C12.1791 12.4376 11.5227 13.4215 11.0326 14.5012C10.5425 15.5635 10.1837 16.6346 9.9561 17.7143C9.74605 18.7766 9.64103 19.7431 9.64103 20.6139C9.64103 22.9127 10.0699 24.9067 10.9276 26.5959C11.7853 28.2852 13.0018 29.5913 14.5772 30.5143Z" fill="#8CD193"/>
</svg>
