<svg width="33" height="21" viewBox="0 0 33 21" fill="none" xmlns="http://www.w3.org/2000/svg">
<path fill-rule="evenodd" clip-rule="evenodd" d="M0.447849 2.0475C9.81392e-08 2.85 0 3.9 0 6V15C0 17.1 9.81392e-08 18.15 0.447849 18.9525C0.842837 19.6579 1.47281 20.2313 2.24748 20.5905C3.12835 21 4.28091 21 6.58601 21H26.344C28.6491 21 29.8017 21 30.6826 20.5905C31.4566 20.231 32.0859 19.6577 32.4805 18.9525C32.93 18.15 32.93 17.1 32.93 15V6C32.93 3.9 32.93 2.85 32.4805 2.0475C32.0863 1.34176 31.4569 0.767842 30.6826 0.408C29.8017 -2.68221e-07 28.6491 0 26.344 0H6.58601C4.28091 0 3.12835 -2.68221e-07 2.24748 0.408C1.47255 0.767587 0.842557 1.34153 0.447849 2.0475ZM4.35829 3H28.5718C28.7485 2.9998 28.9207 3.05145 29.0627 3.14729C29.2048 3.24313 29.3092 3.37809 29.3605 3.53219C29.4119 3.68629 29.4074 3.85135 29.3478 4.00296C29.2882 4.15456 29.1766 4.28466 29.0295 4.374L17.3805 11.472C17.1096 11.6371 16.7909 11.7252 16.465 11.7252C16.1391 11.7252 15.8205 11.6371 15.5496 11.472L3.90056 4.374C3.75349 4.28466 3.64189 4.15456 3.58227 4.00296C3.52265 3.85135 3.51818 3.68629 3.56952 3.53219C3.62085 3.37809 3.72527 3.24313 3.86733 3.14729C4.00938 3.05145 4.18152 2.9998 4.35829 3Z" fill="#5F5F6D"/>
</svg>
