<svg width="30" height="30" viewBox="0 0 30 30" fill="none" xmlns="http://www.w3.org/2000/svg">
<path fill-rule="evenodd" clip-rule="evenodd" d="M30 15C30 23.2843 23.2843 30 15 30C6.71572 30 0 23.2843 0 15C0 6.71573 6.71572 0 15 0C23.2843 0 30 6.71573 30 15ZM15.5246 11.0658C14.0633 11.6778 11.1532 12.9392 6.78183 14.8376C6.08244 15.1249 5.70774 15.3997 5.67025 15.6744C5.61491 16.139 6.1965 16.3195 6.98104 16.563C7.08229 16.5944 7.18691 16.6269 7.29395 16.6611C8.06831 16.9109 9.09247 17.1982 9.62947 17.2107C10.1166 17.2231 10.6536 17.0233 11.2532 16.6112C15.3372 13.851 17.4355 12.4521 17.5729 12.4271C17.6727 12.4022 17.7976 12.3772 17.8851 12.4521C17.9726 12.5271 17.9726 12.6769 17.96 12.7144C17.9004 12.9627 15.4634 15.2251 14.3549 16.2542C14.0694 16.5193 13.872 16.7025 13.826 16.7485C13.7088 16.8691 13.5896 16.9833 13.4749 17.0931C12.758 17.7793 12.22 18.2942 13.5013 19.1341C14.0835 19.5184 14.5531 19.8388 15.0156 20.1543C15.5749 20.536 16.1237 20.9104 16.8485 21.3822C17.0193 21.4943 17.1827 21.6106 17.3421 21.724C17.9643 22.1666 18.5255 22.5659 19.2215 22.5062C19.6212 22.4688 20.0334 22.0941 20.2457 20.97C20.7453 18.3222 21.7195 12.5645 21.9442 10.1915C21.9693 9.99167 21.9442 9.72939 21.9193 9.6045C21.8943 9.4796 21.8568 9.31724 21.707 9.19234C21.5196 9.04246 21.2449 9.01748 21.12 9.01748C20.5579 9.02998 19.6836 9.32972 15.5246 11.0658Z" fill="#5F5F6D"/>
</svg>
