<svg width="33" height="25" viewBox="0 0 33 25" fill="none" xmlns="http://www.w3.org/2000/svg">
<path d="M30.1226 0.220707C30.1226 0.220707 33.1689 -0.861435 32.915 1.76663C32.8304 2.84878 32.0688 6.63628 31.4765 10.733L29.4457 22.8685C29.4457 22.8685 29.2765 24.6463 27.7533 24.9555C26.2301 25.2646 23.9455 23.8733 23.5224 23.5641C23.1838 23.3323 17.176 19.8539 15.0604 18.1534C14.4681 17.6896 13.7912 16.7621 15.1451 15.6799L24.03 7.95035C25.0455 7.02278 26.0609 4.8585 21.83 7.48657L9.98338 14.8297C9.98338 14.8297 8.62948 15.6026 6.09096 14.907L0.590718 13.3611C0.590718 13.3611 -1.44013 12.2016 2.02924 11.0421C10.4911 7.40921 20.8993 3.699 30.1226 0.220707Z" fill="#5F5F6D"/>
</svg>
