<svg width="29" height="20" viewBox="0 0 29 20" fill="none" xmlns="http://www.w3.org/2000/svg">
<path fill-rule="evenodd" clip-rule="evenodd" d="M25.8297 0.597366C27.0782 0.926623 28.0595 1.89323 28.3936 3.12324C28.9976 5.35042 29 10 29 10C29 10 29 14.6496 28.3936 16.8768C28.0595 18.1068 27.0782 19.0734 25.8297 19.4026C23.5691 20 14.4999 20 14.4999 20C14.4999 20 5.43093 20 3.17023 19.4026C1.92172 19.0734 0.940566 18.1068 0.606355 16.8768C0 14.6496 0 10 0 10C0 10 0 5.35042 0.606355 3.12324C0.940566 1.89323 1.92172 0.926623 3.17023 0.597366C5.43093 0 14.4999 0 14.4999 0C14.4999 0 23.5691 0 25.8297 0.597366ZM19.1313 10.0004L11.5972 14.2854V5.71533L19.1313 10.0004Z" fill="#5F5F6D"/>
</svg>
